<?xml version="1.0" encoding="utf-8"?>
<!-- Generator: Adobe Illustrator 18.1.1, SVG Export Plug-In . SVG Version: 6.00 Build 0)  -->
<svg version="1.1" id="Livello_1" xmlns:sketch="http://www.bohemiancoding.com/sketch/ns"
	 xmlns="http://www.w3.org/2000/svg" xmlns:xlink="http://www.w3.org/1999/xlink" x="0px" y="0px" viewBox="-383 283.3 74 29"
	 enable-background="new -383 283.3 74 29" xml:space="preserve">
<title>B22 (black)@1x</title>
<desc>Created with Sketch.</desc>
<g id="Welcome" sketch:type="MSPage">
	<g id="_x30_3-profile" transform="translate(-80.000000, -67.000000)" sketch:type="MSArtboardGroup">
		<g id="B22-_x28_black_x29_" transform="translate(80.000000, 67.000000)" sketch:type="MSLayerGroup">
			<g id="Group-3">
				<g id="Clip-2">
				</g>
				<defs>
					<filter id="Adobe_OpacityMaskFilter" filterUnits="userSpaceOnUse" x="-383" y="283.5" width="23.1" height="28.1">
						<feColorMatrix  type="matrix" values="1 0 0 0 0  0 1 0 0 0  0 0 1 0 0  0 0 0 1 0"/>
					</filter>
				</defs>
				<mask maskUnits="userSpaceOnUse" x="-383" y="283.5" width="23.1" height="28.1" id="mask-2">
					<g filter="url(#Adobe_OpacityMaskFilter)">
						<path id="path-1" fill="#FFFFFF" d="M-383,283.3h73.5v28.3H-383"/>
					</g>
				</mask>
				<path id="Fill-1" sketch:type="MSShapeGroup" mask="url(#mask-2)" fill="#FFFFFF" d="M-371.4,289.2L-371.4,289.2h-0.1h0v-5.7
					H-383v16.9v11.2h11.4h0h0h0.1h0c6.4,0,11.6-5,11.6-11.2C-359.9,294.2-365.1,289.2-371.4,289.2"/>
			</g>
			<path id="Fill-4" sketch:type="MSShapeGroup" fill="#FFFFFF" d="M-338.8,300.8C-338.8,300.8-338.8,300.8-338.8,300.8l-7.3,10.9
				h1.5h6.3h1.5v-1.5v-7.8v-1.5h-1H-338.8z"/>
			<g id="Group-8">
				<g id="Clip-7">
				</g>
				<defs>
					<filter id="Adobe_OpacityMaskFilter_1_" filterUnits="userSpaceOnUse" x="-359.3" y="283.3" width="22.5" height="28.3">
						<feColorMatrix  type="matrix" values="1 0 0 0 0  0 1 0 0 0  0 0 1 0 0  0 0 0 1 0"/>
					</filter>
				</defs>
				<mask maskUnits="userSpaceOnUse" x="-359.3" y="283.3" width="22.5" height="28.3" id="mask-4">
					<g filter="url(#Adobe_OpacityMaskFilter_1_)">
						<path id="path-3" fill="#FFFFFF" d="M-383,283.3h73.5v28.3H-383V283.3z"/>
					</g>
				</mask>
				<path id="Fill-6" sketch:type="MSShapeGroup" mask="url(#mask-4)" fill="#FFFFFF" d="M-338.8,300.8L-338.8,300.8L-338.8,300.8
					c0.2-0.2,0.4-0.5,0.5-0.8c0.9-1.5,1.4-3.2,1.5-5c0-0.1,0-0.3,0-0.4c0,0,0,0,0,0c0-6.2-5.2-11.2-11.6-11.2c-0.2,0-0.3,0-0.5,0
					c-2.1,0.1-4.1,0.7-5.8,1.8l0.8,1.3l4.3,6.8c0.2,0.3,0.3,0.8,0.3,1.3s-0.1,0.9-0.3,1.3l-3.2,5l-2,3.1l-4.4,6.5
					c-0.5,0.7-0.2,1.3,0.7,1.3h10.8l1.5,0L-338.8,300.8L-338.8,300.8z"/>
			</g>
			<path id="Fill-9" sketch:type="MSShapeGroup" fill="#FFFFFF" d="M-310.5,300.8h-1c0,0,0,0,0,0l-7.3,10.9h1.5h6.3h1.5v-1.5v-7.8
				v-1.5H-310.5z"/>
			<g id="Group-13">
				<g id="Clip-12">
				</g>
				<defs>
					<filter id="Adobe_OpacityMaskFilter_2_" filterUnits="userSpaceOnUse" x="-332" y="283.3" width="22.5" height="28.3">
						<feColorMatrix  type="matrix" values="1 0 0 0 0  0 1 0 0 0  0 0 1 0 0  0 0 0 1 0"/>
					</filter>
				</defs>
				<mask maskUnits="userSpaceOnUse" x="-332" y="283.3" width="22.5" height="28.3" id="mask-6">
					<g filter="url(#Adobe_OpacityMaskFilter_2_)">
						<path id="path-5" fill="#FFFFFF" d="M-383,283.3h73.5v28.3H-383V283.3z"/>
					</g>
				</mask>
				<path id="Fill-11" sketch:type="MSShapeGroup" mask="url(#mask-6)" fill="#FFFFFF" d="M-311.5,300.8L-311.5,300.8L-311.5,300.8
					c0.2-0.2,0.4-0.5,0.5-0.8c0.9-1.5,1.4-3.2,1.5-5c0-0.1,0-0.3,0-0.4c0,0,0,0,0,0c0-6.2-5.2-11.2-11.6-11.2c-0.2,0-0.3,0-0.5,0
					c-2.1,0.1-4.1,0.7-5.8,1.8l0.8,1.3l4.3,6.8c0.2,0.3,0.3,0.8,0.3,1.3s-0.1,0.9-0.3,1.3l-3.2,5l-2,3.1l-4.4,6.5
					c-0.5,0.7-0.2,1.3,0.7,1.3h10.8l1.5,0L-311.5,300.8L-311.5,300.8z"/>
			</g>
		</g>
	</g>
</g>
</svg>
